<?xml version="1.0" encoding="UTF-8"?>
<svg width="18" height="18" viewBox="0 0 18 18" fill="none" xmlns="http://www.w3.org/2000/svg">
  <path d="M6.67807 17.3334L6.34639 14.6667C6.16674 14.5973 5.99758 14.514 5.83893 14.4167C5.68028 14.3195 5.52467 14.2154 5.3721 14.1042L2.90527 15.1459L0.625 11.1876L2.76016 9.56258C2.74634 9.46536 2.73943 9.37175 2.73943 9.28175V8.71925C2.73943 8.62869 2.74634 8.5348 2.76016 8.43758L0.625 6.81258L2.90527 2.85425L5.3721 3.89591C5.52412 3.7848 5.68304 3.68064 5.84888 3.58341C6.01472 3.48619 6.18056 3.40286 6.34639 3.33341L6.67807 0.666748H11.2386L11.5703 3.33341C11.7499 3.40286 11.9194 3.48619 12.0786 3.58341C12.2378 3.68064 12.3931 3.7848 12.5446 3.89591L15.0114 2.85425L17.2917 6.81258L15.1565 8.43758C15.1703 8.5348 15.1772 8.62869 15.1772 8.71925V9.28091C15.1772 9.37147 15.1634 9.46536 15.1358 9.56258L17.2709 11.1876L14.9907 15.1459L12.5446 14.1042C12.3926 14.2154 12.2336 14.3195 12.0678 14.4167C11.9019 14.514 11.7361 14.5973 11.5703 14.6667L11.2386 17.3334H6.67807ZM8.99979 11.9167C9.80134 11.9167 10.4854 11.632 11.052 11.0626C11.6186 10.4931 11.9019 9.80564 11.9019 9.00008C11.9019 8.19453 11.6186 7.50703 11.052 6.93758C10.4854 6.36814 9.80134 6.08341 8.99979 6.08341C8.18443 6.08341 7.49675 6.36814 6.93678 6.93758C6.3768 7.50703 6.09708 8.19453 6.09764 9.00008C6.09819 9.80564 6.37818 10.4931 6.9376 11.0626C7.49703 11.632 8.18443 11.9167 8.99979 11.9167Z" fill="#005293"/>
</svg> 