<?xml version="1.0" encoding="UTF-8"?>
<svg width="13" height="16" viewBox="0 0 13 16" fill="none" xmlns="http://www.w3.org/2000/svg">
  <path d="M5.08333 14.375H7.91667C7.91667 15.1542 7.27917 15.7917 6.5 15.7917C5.72083 15.7917 5.08333 15.1542 5.08333 14.375ZM12.875 12.9583V13.6667H0.125V12.9583L1.54167 11.5417V7.29167C1.54167 5.09583 2.95833 3.18333 5.08333 2.54583V2.33333C5.08333 1.55417 5.72083 0.916666 6.5 0.916666C7.27917 0.916666 7.91667 1.55417 7.91667 2.33333V2.54583C10.0417 3.18333 11.4583 5.09583 11.4583 7.29167V11.5417L12.875 12.9583ZM10.0417 7.29167C10.0417 5.30833 8.48333 3.75 6.5 3.75C4.51667 3.75 2.95833 5.30833 2.95833 7.29167V12.25H10.0417V7.29167Z" fill="#005293"/>
</svg> 